<svg width="22" height="22" viewBox="0 0 22 22" fill="none" xmlns="http://www.w3.org/2000/svg">
<path d="M20.15 9.82812V12.1719H9.82812C9.51732 12.1719 9.21925 12.0484 8.99948 11.8286C8.77972 11.6089 8.65625 11.3108 8.65625 11C8.65625 10.6892 8.77972 10.3911 8.99948 10.1714C9.21925 9.95159 9.51732 9.82813 9.82812 9.82812H20.15V9.82812Z" fill="#98FF8C"/>
<path d="M15.9512 14.5156C15.9509 14.3617 15.9811 14.2092 16.04 14.067C16.0989 13.9248 16.1854 13.7957 16.2945 13.6871L18.9816 11L16.2945 8.31289C16.0811 8.09187 15.9629 7.79585 15.9656 7.48859C15.9683 7.18133 16.0915 6.88741 16.3088 6.67013C16.5261 6.45286 16.82 6.32961 17.1273 6.32694C17.4345 6.32427 17.7305 6.44239 17.9516 6.65586L21.4672 10.1715C21.6869 10.3912 21.8103 10.6893 21.8103 11C21.8103 11.3107 21.6869 11.6088 21.4672 11.8285L17.9516 15.3441C17.7877 15.508 17.5789 15.6195 17.3516 15.6647C17.1243 15.7099 16.8887 15.6867 16.6746 15.5981C16.4605 15.5094 16.2775 15.3592 16.1487 15.1666C16.02 14.9739 15.9512 14.7474 15.9512 14.5156ZM11 1.36133V3.70508C11 4.01588 10.8765 4.31395 10.6568 4.53372C10.437 4.75349 10.1389 4.87695 9.82812 4.87695C9.51732 4.87695 9.21925 4.75349 8.99948 4.53372C8.77972 4.31395 8.65625 4.01588 8.65625 3.70508V2.5332H2.5332V19.4668H8.65625V18.2949C8.65625 17.9841 8.77972 17.686 8.99948 17.4663C9.21925 17.2465 9.51732 17.123 9.82812 17.123C10.1389 17.123 10.437 17.2465 10.6568 17.4663C10.8765 17.686 11 17.9841 11 18.2949V20.6387C11 20.9495 10.8765 21.2475 10.6568 21.4673C10.437 21.6871 10.1389 21.8105 9.82812 21.8105H1.36133C1.05053 21.8105 0.752457 21.6871 0.532687 21.4673C0.312918 21.2475 0.189453 20.9495 0.189453 20.6387V1.36133C0.189453 1.05053 0.312918 0.752457 0.532687 0.532687C0.752457 0.312918 1.05053 0.189453 1.36133 0.189453H9.82812C10.1389 0.189453 10.437 0.312918 10.6568 0.532687C10.8765 0.752457 11 1.05053 11 1.36133Z" fill="#11D600"/>
</svg>
