<svg width="25" height="31" viewBox="0 0 25 31" fill="none" xmlns="http://www.w3.org/2000/svg">
<path d="M12.5 30.4687C14.2187 30.4687 15.625 29.0625 15.625 27.3437H9.375C9.375 29.0625 10.7812 30.4687 12.5 30.4687ZM21.875 21.0937V13.2812C21.875 8.48437 19.3281 4.46875 14.8437 3.40625V2.34375C14.8437 1.04688 13.7969 0 12.5 0C11.2031 0 10.1562 1.04688 10.1562 2.34375V3.40625C5.6875 4.46875 3.125 8.46875 3.125 13.2812V21.0937L0 24.2187V25.7812H25V24.2187L21.875 21.0937ZM18.75 22.6562H6.25V13.2812C6.25 9.40625 8.60937 6.25 12.5 6.25C16.3906 6.25 18.75 9.40625 18.75 13.2812V22.6562Z" fill="#1AD605"/>
</svg>
