<svg width="21" height="26" viewBox="0 0 21 26" fill="none" xmlns="http://www.w3.org/2000/svg">
<path d="M10.4735 13.07C13.772 13.07 16.446 10.396 16.446 7.0975C16.446 3.79898 13.772 1.125 10.4735 1.125C7.17496 1.125 4.50098 3.79898 4.50098 7.0975C4.50098 10.396 7.17496 13.07 10.4735 13.07Z" stroke="#1AD605" stroke-width="1.5" stroke-linecap="round" stroke-linejoin="round"/>
<path fill-rule="evenodd" clip-rule="evenodd" d="M1.00002 21.3767C0.998435 20.9568 1.09234 20.5421 1.27464 20.1639C1.84672 19.0197 3.45999 18.4133 4.79867 18.1387C5.76412 17.9327 6.7429 17.795 7.72773 17.7268C9.55107 17.5666 11.3849 17.5666 13.2083 17.7268C14.193 17.7958 15.1718 17.9335 16.1373 18.1387C17.476 18.4133 19.0893 18.9625 19.6614 20.1639C20.028 20.9349 20.028 21.83 19.6614 22.601C19.0893 23.8023 17.476 24.3515 16.1373 24.6147C15.173 24.8292 14.1939 24.9708 13.2083 25.038C11.7242 25.1638 10.2333 25.1868 8.74604 25.1067C8.40279 25.1067 8.07098 25.1067 7.72773 25.038C6.74581 24.9716 5.77042 24.8301 4.81011 24.6147C3.45999 24.3515 1.85816 23.8023 1.27464 22.601C1.09327 22.2183 0.99946 21.8001 1.00002 21.3767Z" stroke="#1AD605" stroke-width="1.5" stroke-linecap="round" stroke-linejoin="round"/>
</svg>
